<svg width="108" height="24" viewBox="0 0 108 24" fill="none" xmlns="http://www.w3.org/2000/svg">
<g clip-path="url(#clip0_1_71)">
<path d="M0.896 23V22.552C3.904 22.2 4.864 20.76 4.864 17.496V4.504C4.864 2.584 3.648 1.176 0.896 1.112V0.695999H10.656L16.992 16.504H17.152L22.816 0.695999H31.52V1.112C28.928 1.208 28.32 1.656 28.32 2.776V20.92C28.32 22.04 28.928 22.456 31.52 22.552V23H20.032V22.552C22.016 22.456 23.008 22.104 23.008 20.92V2.936H22.848L15.616 23H14.144L5.856 2.936H5.664V17.496C5.664 20.76 6.752 22.168 9.92 22.552V23H0.896Z" fill="white"/>
<path d="M52 23.288L37.696 5.08H37.664V17.496C37.664 20.76 38.848 22.232 42.112 22.552V23H32.896V22.552C35.904 22.2 36.864 20.76 36.864 17.496V4.888C36.864 2.904 35.648 1.304 32.896 1.112V0.695999H41.024L53.056 16.088H53.088V6.168C53.088 2.968 51.808 1.464 48.576 1.112V0.695999H57.856V1.112C54.848 1.528 53.888 2.968 53.888 6.168V23.288H52Z" fill="white"/>
<path d="M63.6 23V22.552C66.416 22.488 67.248 22.04 67.248 20.92V1.24H66.768C64.304 1.24 62.448 3.8 60.016 8.408L59.504 8.344L59.696 0.695999H80.176L80.336 8.344L79.824 8.408C77.392 3.8 75.536 1.24 73.072 1.24H72.624V20.92C72.624 22.04 73.424 22.488 76.272 22.552V23H63.6Z" fill="white"/>
<path d="M102 23.288L87.696 5.08H87.664V17.496C87.664 20.76 88.848 22.232 92.112 22.552V23H82.896V22.552C85.904 22.2 86.864 20.76 86.864 17.496V4.888C86.864 2.904 85.648 1.304 82.896 1.112V0.695999H91.024L103.056 16.088H103.088V6.168C103.088 2.968 101.808 1.464 98.576 1.112V0.695999H107.856V1.112C104.848 1.528 103.888 2.968 103.888 6.168V23.288H102Z" fill="white"/>
</g>
<defs>
<clipPath id="clip0_1_71">
<rect width="108" height="24" fill="white"/>
</clipPath>
</defs>
</svg>
